<svg version="1.0" xmlns="http://www.w3.org/2000/svg" xmlns:xlink="http://www.w3.org/1999/xlink"
	 viewBox="0 0 100 100" enable-background="new 0 0 100 100" xml:space="preserve">
	
<svg xmlns="http://www.w3.org/2000/svg" xmlns:xlink="http://www.w3.org/1999/xlink" version="1.1" width="100" height="100" viewBox="0 0 2000 2000" x="0" y="0" shape-rendering="crispEdges"><defs/><rect x="0" y="0" width="2000" height="2000" fill="#ffffff"/><svg viewBox="0 0 3.4 3.4" x="712" y="200" width="64" height="64" shape-rendering="auto"><circle fill="#000000" cx="1.7" cy="1.7" r="1.7"/></svg><svg viewBox="0 0 3.4 3.4" x="776" y="200" width="64" height="64" shape-rendering="auto"><circle fill="#000000" cx="1.7" cy="1.7" r="1.7"/></svg><svg viewBox="0 0 3.4 3.4" x="1096" y="200" width="64" height="64" shape-rendering="auto"><circle fill="#000000" cx="1.7" cy="1.7" r="1.7"/></svg><svg viewBox="0 0 3.4 3.4" x="1224" y="200" width="64" height="64" shape-rendering="auto"><circle fill="#000000" cx="1.7" cy="1.7" r="1.7"/></svg><svg viewBox="0 0 3.4 3.4" x="1032" y="264" width="64" height="64" shape-rendering="auto"><circle fill="#000000" cx="1.7" cy="1.7" r="1.7"/></svg><svg viewBox="0 0 3.4 3.4" x="1160" y="264" width="64" height="64" shape-rendering="auto"><circle fill="#000000" cx="1.7" cy="1.7" r="1.7"/></svg><svg viewBox="0 0 3.4 3.4" x="712" y="328" width="64" height="64" shape-rendering="auto"><circle fill="#000000" cx="1.7" cy="1.7" r="1.7"/></svg><svg viewBox="0 0 3.4 3.4" x="904" y="328" width="64" height="64" shape-rendering="auto"><circle fill="#000000" cx="1.7" cy="1.7" r="1.7"/></svg><svg viewBox="0 0 3.4 3.4" x="968" y="328" width="64" height="64" shape-rendering="auto"><circle fill="#000000" cx="1.7" cy="1.7" r="1.7"/></svg><svg viewBox="0 0 3.4 3.4" x="1032" y="328" width="64" height="64" shape-rendering="auto"><circle fill="#000000" cx="1.7" cy="1.7" r="1.7"/></svg><svg viewBox="0 0 3.4 3.4" x="1160" y="328" width="64" height="64" shape-rendering="auto"><circle fill="#000000" cx="1.7" cy="1.7" r="1.7"/></svg><svg viewBox="0 0 3.4 3.4" x="1224" y="328" width="64" height="64" shape-rendering="auto"><circle fill="#000000" cx="1.7" cy="1.7" r="1.7"/></svg><svg viewBox="0 0 3.4 3.4" x="712" y="392" width="64" height="64" shape-rendering="auto"><circle fill="#000000" cx="1.7" cy="1.7" r="1.7"/></svg><svg viewBox="0 0 3.4 3.4" x="776" y="392" width="64" height="64" shape-rendering="auto"><circle fill="#000000" cx="1.7" cy="1.7" r="1.7"/></svg><svg viewBox="0 0 3.4 3.4" x="904" y="392" width="64" height="64" shape-rendering="auto"><circle fill="#000000" cx="1.7" cy="1.7" r="1.7"/></svg><svg viewBox="0 0 3.4 3.4" x="1032" y="392" width="64" height="64" shape-rendering="auto"><circle fill="#000000" cx="1.7" cy="1.7" r="1.7"/></svg><svg viewBox="0 0 3.4 3.4" x="1160" y="392" width="64" height="64" shape-rendering="auto"><circle fill="#000000" cx="1.7" cy="1.7" r="1.7"/></svg><svg viewBox="0 0 3.4 3.4" x="1224" y="392" width="64" height="64" shape-rendering="auto"><circle fill="#000000" cx="1.7" cy="1.7" r="1.7"/></svg><svg viewBox="0 0 3.4 3.4" x="712" y="456" width="64" height="64" shape-rendering="auto"><circle fill="#000000" cx="1.7" cy="1.7" r="1.7"/></svg><svg viewBox="0 0 3.4 3.4" x="776" y="456" width="64" height="64" shape-rendering="auto"><circle fill="#000000" cx="1.7" cy="1.7" r="1.7"/></svg><svg viewBox="0 0 3.4 3.4" x="840" y="456" width="64" height="64" shape-rendering="auto"><circle fill="#000000" cx="1.7" cy="1.7" r="1.7"/></svg><svg viewBox="0 0 3.4 3.4" x="904" y="456" width="64" height="64" shape-rendering="auto"><circle fill="#000000" cx="1.7" cy="1.7" r="1.7"/></svg><svg viewBox="0 0 3.4 3.4" x="1096" y="456" width="64" height="64" shape-rendering="auto"><circle fill="#000000" cx="1.7" cy="1.7" r="1.7"/></svg><svg viewBox="0 0 3.4 3.4" x="1224" y="456" width="64" height="64" shape-rendering="auto"><circle fill="#000000" cx="1.7" cy="1.7" r="1.7"/></svg><svg viewBox="0 0 3.4 3.4" x="776" y="520" width="64" height="64" shape-rendering="auto"><circle fill="#000000" cx="1.7" cy="1.7" r="1.7"/></svg><svg viewBox="0 0 3.4 3.4" x="968" y="520" width="64" height="64" shape-rendering="auto"><circle fill="#000000" cx="1.7" cy="1.7" r="1.7"/></svg><svg viewBox="0 0 3.4 3.4" x="1096" y="520" width="64" height="64" shape-rendering="auto"><circle fill="#000000" cx="1.7" cy="1.7" r="1.7"/></svg><svg viewBox="0 0 3.4 3.4" x="1224" y="520" width="64" height="64" shape-rendering="auto"><circle fill="#000000" cx="1.7" cy="1.7" r="1.7"/></svg><svg viewBox="0 0 3.4 3.4" x="712" y="584" width="64" height="64" shape-rendering="auto"><circle fill="#000000" cx="1.7" cy="1.7" r="1.7"/></svg><svg viewBox="0 0 3.4 3.4" x="840" y="584" width="64" height="64" shape-rendering="auto"><circle fill="#000000" cx="1.7" cy="1.7" r="1.7"/></svg><svg viewBox="0 0 3.4 3.4" x="968" y="584" width="64" height="64" shape-rendering="auto"><circle fill="#000000" cx="1.7" cy="1.7" r="1.7"/></svg><svg viewBox="0 0 3.4 3.4" x="1096" y="584" width="64" height="64" shape-rendering="auto"><circle fill="#000000" cx="1.7" cy="1.7" r="1.7"/></svg><svg viewBox="0 0 3.4 3.4" x="1224" y="584" width="64" height="64" shape-rendering="auto"><circle fill="#000000" cx="1.7" cy="1.7" r="1.7"/></svg><svg viewBox="0 0 3.4 3.4" x="776" y="648" width="64" height="64" shape-rendering="auto"><circle fill="#000000" cx="1.7" cy="1.7" r="1.7"/></svg><svg viewBox="0 0 3.4 3.4" x="904" y="648" width="64" height="64" shape-rendering="auto"><circle fill="#000000" cx="1.7" cy="1.7" r="1.7"/></svg><svg viewBox="0 0 3.4 3.4" x="1096" y="648" width="64" height="64" shape-rendering="auto"><circle fill="#000000" cx="1.7" cy="1.7" r="1.7"/></svg><svg viewBox="0 0 3.4 3.4" x="1160" y="648" width="64" height="64" shape-rendering="auto"><circle fill="#000000" cx="1.7" cy="1.7" r="1.7"/></svg><svg viewBox="0 0 3.4 3.4" x="1224" y="648" width="64" height="64" shape-rendering="auto"><circle fill="#000000" cx="1.7" cy="1.7" r="1.7"/></svg><svg viewBox="0 0 3.4 3.4" x="200" y="712" width="64" height="64" shape-rendering="auto"><circle fill="#000000" cx="1.7" cy="1.7" r="1.7"/></svg><svg viewBox="0 0 3.4 3.4" x="264" y="712" width="64" height="64" shape-rendering="auto"><circle fill="#000000" cx="1.7" cy="1.7" r="1.7"/></svg><svg viewBox="0 0 3.4 3.4" x="328" y="712" width="64" height="64" shape-rendering="auto"><circle fill="#000000" cx="1.7" cy="1.7" r="1.7"/></svg><svg viewBox="0 0 3.4 3.4" x="392" y="712" width="64" height="64" shape-rendering="auto"><circle fill="#000000" cx="1.7" cy="1.7" r="1.7"/></svg><svg viewBox="0 0 3.4 3.4" x="584" y="712" width="64" height="64" shape-rendering="auto"><circle fill="#000000" cx="1.7" cy="1.7" r="1.7"/></svg><svg viewBox="0 0 3.4 3.4" x="712" y="712" width="64" height="64" shape-rendering="auto"><circle fill="#000000" cx="1.7" cy="1.7" r="1.7"/></svg><svg viewBox="0 0 3.4 3.4" x="1032" y="712" width="64" height="64" shape-rendering="auto"><circle fill="#000000" cx="1.7" cy="1.7" r="1.7"/></svg><svg viewBox="0 0 3.4 3.4" x="1096" y="712" width="64" height="64" shape-rendering="auto"><circle fill="#000000" cx="1.7" cy="1.7" r="1.7"/></svg><svg viewBox="0 0 3.4 3.4" x="1224" y="712" width="64" height="64" shape-rendering="auto"><circle fill="#000000" cx="1.7" cy="1.7" r="1.7"/></svg><svg viewBox="0 0 3.4 3.4" x="1288" y="712" width="64" height="64" shape-rendering="auto"><circle fill="#000000" cx="1.7" cy="1.7" r="1.7"/></svg><svg viewBox="0 0 3.4 3.4" x="1480" y="712" width="64" height="64" shape-rendering="auto"><circle fill="#000000" cx="1.7" cy="1.7" r="1.7"/></svg><svg viewBox="0 0 3.4 3.4" x="1544" y="712" width="64" height="64" shape-rendering="auto"><circle fill="#000000" cx="1.7" cy="1.7" r="1.7"/></svg><svg viewBox="0 0 3.4 3.4" x="1608" y="712" width="64" height="64" shape-rendering="auto"><circle fill="#000000" cx="1.7" cy="1.7" r="1.7"/></svg><svg viewBox="0 0 3.4 3.4" x="1736" y="712" width="64" height="64" shape-rendering="auto"><circle fill="#000000" cx="1.7" cy="1.7" r="1.7"/></svg><svg viewBox="0 0 3.4 3.4" x="200" y="776" width="64" height="64" shape-rendering="auto"><circle fill="#000000" cx="1.7" cy="1.7" r="1.7"/></svg><svg viewBox="0 0 3.4 3.4" x="392" y="776" width="64" height="64" shape-rendering="auto"><circle fill="#000000" cx="1.7" cy="1.7" r="1.7"/></svg><svg viewBox="0 0 3.4 3.4" x="520" y="776" width="64" height="64" shape-rendering="auto"><circle fill="#000000" cx="1.7" cy="1.7" r="1.7"/></svg><svg viewBox="0 0 3.4 3.4" x="712" y="776" width="64" height="64" shape-rendering="auto"><circle fill="#000000" cx="1.7" cy="1.7" r="1.7"/></svg><svg viewBox="0 0 3.4 3.4" x="776" y="776" width="64" height="64" shape-rendering="auto"><circle fill="#000000" cx="1.7" cy="1.7" r="1.7"/></svg><svg viewBox="0 0 3.4 3.4" x="1160" y="776" width="64" height="64" shape-rendering="auto"><circle fill="#000000" cx="1.7" cy="1.7" r="1.7"/></svg><svg viewBox="0 0 3.4 3.4" x="1224" y="776" width="64" height="64" shape-rendering="auto"><circle fill="#000000" cx="1.7" cy="1.7" r="1.7"/></svg><svg viewBox="0 0 3.4 3.4" x="1288" y="776" width="64" height="64" shape-rendering="auto"><circle fill="#000000" cx="1.7" cy="1.7" r="1.7"/></svg><svg viewBox="0 0 3.4 3.4" x="1416" y="776" width="64" height="64" shape-rendering="auto"><circle fill="#000000" cx="1.7" cy="1.7" r="1.7"/></svg><svg viewBox="0 0 3.4 3.4" x="1480" y="776" width="64" height="64" shape-rendering="auto"><circle fill="#000000" cx="1.7" cy="1.7" r="1.7"/></svg><svg viewBox="0 0 3.4 3.4" x="1736" y="776" width="64" height="64" shape-rendering="auto"><circle fill="#000000" cx="1.7" cy="1.7" r="1.7"/></svg><svg viewBox="0 0 3.4 3.4" x="264" y="840" width="64" height="64" shape-rendering="auto"><circle fill="#000000" cx="1.7" cy="1.7" r="1.7"/></svg><svg viewBox="0 0 3.4 3.4" x="328" y="840" width="64" height="64" shape-rendering="auto"><circle fill="#000000" cx="1.7" cy="1.7" r="1.7"/></svg><svg viewBox="0 0 3.4 3.4" x="392" y="840" width="64" height="64" shape-rendering="auto"><circle fill="#000000" cx="1.7" cy="1.7" r="1.7"/></svg><svg viewBox="0 0 3.4 3.4" x="456" y="840" width="64" height="64" shape-rendering="auto"><circle fill="#000000" cx="1.7" cy="1.7" r="1.7"/></svg><svg viewBox="0 0 3.4 3.4" x="520" y="840" width="64" height="64" shape-rendering="auto"><circle fill="#000000" cx="1.7" cy="1.7" r="1.7"/></svg><svg viewBox="0 0 3.4 3.4" x="584" y="840" width="64" height="64" shape-rendering="auto"><circle fill="#000000" cx="1.7" cy="1.7" r="1.7"/></svg><svg viewBox="0 0 3.4 3.4" x="712" y="840" width="64" height="64" shape-rendering="auto"><circle fill="#000000" cx="1.7" cy="1.7" r="1.7"/></svg><svg viewBox="0 0 3.4 3.4" x="1544" y="840" width="64" height="64" shape-rendering="auto"><circle fill="#000000" cx="1.7" cy="1.7" r="1.7"/></svg><svg viewBox="0 0 3.4 3.4" x="1608" y="840" width="64" height="64" shape-rendering="auto"><circle fill="#000000" cx="1.7" cy="1.7" r="1.7"/></svg><svg viewBox="0 0 3.4 3.4" x="1672" y="840" width="64" height="64" shape-rendering="auto"><circle fill="#000000" cx="1.7" cy="1.7" r="1.7"/></svg><svg viewBox="0 0 3.4 3.4" x="1736" y="840" width="64" height="64" shape-rendering="auto"><circle fill="#000000" cx="1.7" cy="1.7" r="1.7"/></svg><svg viewBox="0 0 3.4 3.4" x="264" y="904" width="64" height="64" shape-rendering="auto"><circle fill="#000000" cx="1.7" cy="1.7" r="1.7"/></svg><svg viewBox="0 0 3.4 3.4" x="392" y="904" width="64" height="64" shape-rendering="auto"><circle fill="#000000" cx="1.7" cy="1.7" r="1.7"/></svg><svg viewBox="0 0 3.4 3.4" x="520" y="904" width="64" height="64" shape-rendering="auto"><circle fill="#000000" cx="1.7" cy="1.7" r="1.7"/></svg><svg viewBox="0 0 3.4 3.4" x="648" y="904" width="64" height="64" shape-rendering="auto"><circle fill="#000000" cx="1.7" cy="1.7" r="1.7"/></svg><svg viewBox="0 0 3.4 3.4" x="904" y="904" width="64" height="64" shape-rendering="auto"><circle fill="#000000" cx="1.7" cy="1.7" r="1.7"/></svg><svg viewBox="0 0 3.4 3.4" x="968" y="904" width="64" height="64" shape-rendering="auto"><circle fill="#000000" cx="1.7" cy="1.7" r="1.7"/></svg><svg viewBox="0 0 3.4 3.4" x="1032" y="904" width="64" height="64" shape-rendering="auto"><circle fill="#000000" cx="1.7" cy="1.7" r="1.7"/></svg><svg viewBox="0 0 3.4 3.4" x="1160" y="904" width="64" height="64" shape-rendering="auto"><circle fill="#000000" cx="1.7" cy="1.7" r="1.7"/></svg><svg viewBox="0 0 3.4 3.4" x="1288" y="904" width="64" height="64" shape-rendering="auto"><circle fill="#000000" cx="1.7" cy="1.7" r="1.7"/></svg><svg viewBox="0 0 3.4 3.4" x="1352" y="904" width="64" height="64" shape-rendering="auto"><circle fill="#000000" cx="1.7" cy="1.7" r="1.7"/></svg><svg viewBox="0 0 3.4 3.4" x="1416" y="904" width="64" height="64" shape-rendering="auto"><circle fill="#000000" cx="1.7" cy="1.7" r="1.7"/></svg><svg viewBox="0 0 3.4 3.4" x="1544" y="904" width="64" height="64" shape-rendering="auto"><circle fill="#000000" cx="1.7" cy="1.7" r="1.7"/></svg><svg viewBox="0 0 3.4 3.4" x="1608" y="904" width="64" height="64" shape-rendering="auto"><circle fill="#000000" cx="1.7" cy="1.7" r="1.7"/></svg><svg viewBox="0 0 3.4 3.4" x="1736" y="904" width="64" height="64" shape-rendering="auto"><circle fill="#000000" cx="1.7" cy="1.7" r="1.7"/></svg><svg viewBox="0 0 3.4 3.4" x="200" y="968" width="64" height="64" shape-rendering="auto"><circle fill="#000000" cx="1.7" cy="1.7" r="1.7"/></svg><svg viewBox="0 0 3.4 3.4" x="328" y="968" width="64" height="64" shape-rendering="auto"><circle fill="#000000" cx="1.7" cy="1.7" r="1.7"/></svg><svg viewBox="0 0 3.4 3.4" x="456" y="968" width="64" height="64" shape-rendering="auto"><circle fill="#000000" cx="1.7" cy="1.7" r="1.7"/></svg><svg viewBox="0 0 3.4 3.4" x="584" y="968" width="64" height="64" shape-rendering="auto"><circle fill="#000000" cx="1.7" cy="1.7" r="1.7"/></svg><svg viewBox="0 0 3.4 3.4" x="648" y="968" width="64" height="64" shape-rendering="auto"><circle fill="#000000" cx="1.7" cy="1.7" r="1.7"/></svg><svg viewBox="0 0 3.4 3.4" x="776" y="968" width="64" height="64" shape-rendering="auto"><circle fill="#000000" cx="1.7" cy="1.7" r="1.7"/></svg><svg viewBox="0 0 3.4 3.4" x="904" y="968" width="64" height="64" shape-rendering="auto"><circle fill="#000000" cx="1.7" cy="1.7" r="1.7"/></svg><svg viewBox="0 0 3.4 3.4" x="1032" y="968" width="64" height="64" shape-rendering="auto"><circle fill="#000000" cx="1.7" cy="1.7" r="1.7"/></svg><svg viewBox="0 0 3.4 3.4" x="1160" y="968" width="64" height="64" shape-rendering="auto"><circle fill="#000000" cx="1.7" cy="1.7" r="1.7"/></svg><svg viewBox="0 0 3.4 3.4" x="1352" y="968" width="64" height="64" shape-rendering="auto"><circle fill="#000000" cx="1.7" cy="1.7" r="1.7"/></svg><svg viewBox="0 0 3.4 3.4" x="1416" y="968" width="64" height="64" shape-rendering="auto"><circle fill="#000000" cx="1.7" cy="1.7" r="1.7"/></svg><svg viewBox="0 0 3.4 3.4" x="1480" y="968" width="64" height="64" shape-rendering="auto"><circle fill="#000000" cx="1.7" cy="1.7" r="1.7"/></svg><svg viewBox="0 0 3.4 3.4" x="1544" y="968" width="64" height="64" shape-rendering="auto"><circle fill="#000000" cx="1.7" cy="1.7" r="1.7"/></svg><svg viewBox="0 0 3.4 3.4" x="1672" y="968" width="64" height="64" shape-rendering="auto"><circle fill="#000000" cx="1.7" cy="1.7" r="1.7"/></svg><svg viewBox="0 0 3.4 3.4" x="1736" y="968" width="64" height="64" shape-rendering="auto"><circle fill="#000000" cx="1.7" cy="1.7" r="1.7"/></svg><svg viewBox="0 0 3.4 3.4" x="264" y="1032" width="64" height="64" shape-rendering="auto"><circle fill="#000000" cx="1.7" cy="1.7" r="1.7"/></svg><svg viewBox="0 0 3.4 3.4" x="648" y="1032" width="64" height="64" shape-rendering="auto"><circle fill="#000000" cx="1.7" cy="1.7" r="1.7"/></svg><svg viewBox="0 0 3.4 3.4" x="712" y="1032" width="64" height="64" shape-rendering="auto"><circle fill="#000000" cx="1.7" cy="1.7" r="1.7"/></svg><svg viewBox="0 0 3.4 3.4" x="840" y="1032" width="64" height="64" shape-rendering="auto"><circle fill="#000000" cx="1.7" cy="1.7" r="1.7"/></svg><svg viewBox="0 0 3.4 3.4" x="904" y="1032" width="64" height="64" shape-rendering="auto"><circle fill="#000000" cx="1.7" cy="1.7" r="1.7"/></svg><svg viewBox="0 0 3.4 3.4" x="1160" y="1032" width="64" height="64" shape-rendering="auto"><circle fill="#000000" cx="1.7" cy="1.7" r="1.7"/></svg><svg viewBox="0 0 3.4 3.4" x="1224" y="1032" width="64" height="64" shape-rendering="auto"><circle fill="#000000" cx="1.7" cy="1.7" r="1.7"/></svg><svg viewBox="0 0 3.4 3.4" x="1416" y="1032" width="64" height="64" shape-rendering="auto"><circle fill="#000000" cx="1.7" cy="1.7" r="1.7"/></svg><svg viewBox="0 0 3.4 3.4" x="1544" y="1032" width="64" height="64" shape-rendering="auto"><circle fill="#000000" cx="1.7" cy="1.7" r="1.7"/></svg><svg viewBox="0 0 3.4 3.4" x="1672" y="1032" width="64" height="64" shape-rendering="auto"><circle fill="#000000" cx="1.7" cy="1.7" r="1.7"/></svg><svg viewBox="0 0 3.4 3.4" x="1736" y="1032" width="64" height="64" shape-rendering="auto"><circle fill="#000000" cx="1.7" cy="1.7" r="1.7"/></svg><svg viewBox="0 0 3.4 3.4" x="264" y="1096" width="64" height="64" shape-rendering="auto"><circle fill="#000000" cx="1.7" cy="1.7" r="1.7"/></svg><svg viewBox="0 0 3.4 3.4" x="328" y="1096" width="64" height="64" shape-rendering="auto"><circle fill="#000000" cx="1.7" cy="1.7" r="1.7"/></svg><svg viewBox="0 0 3.4 3.4" x="456" y="1096" width="64" height="64" shape-rendering="auto"><circle fill="#000000" cx="1.7" cy="1.7" r="1.7"/></svg><svg viewBox="0 0 3.4 3.4" x="520" y="1096" width="64" height="64" shape-rendering="auto"><circle fill="#000000" cx="1.7" cy="1.7" r="1.7"/></svg><svg viewBox="0 0 3.4 3.4" x="584" y="1096" width="64" height="64" shape-rendering="auto"><circle fill="#000000" cx="1.7" cy="1.7" r="1.7"/></svg><svg viewBox="0 0 3.4 3.4" x="712" y="1096" width="64" height="64" shape-rendering="auto"><circle fill="#000000" cx="1.7" cy="1.7" r="1.7"/></svg><svg viewBox="0 0 3.4 3.4" x="968" y="1096" width="64" height="64" shape-rendering="auto"><circle fill="#000000" cx="1.7" cy="1.7" r="1.7"/></svg><svg viewBox="0 0 3.4 3.4" x="1160" y="1096" width="64" height="64" shape-rendering="auto"><circle fill="#000000" cx="1.7" cy="1.7" r="1.7"/></svg><svg viewBox="0 0 3.4 3.4" x="1224" y="1096" width="64" height="64" shape-rendering="auto"><circle fill="#000000" cx="1.7" cy="1.7" r="1.7"/></svg><svg viewBox="0 0 3.4 3.4" x="1288" y="1096" width="64" height="64" shape-rendering="auto"><circle fill="#000000" cx="1.7" cy="1.7" r="1.7"/></svg><svg viewBox="0 0 3.4 3.4" x="1416" y="1096" width="64" height="64" shape-rendering="auto"><circle fill="#000000" cx="1.7" cy="1.7" r="1.7"/></svg><svg viewBox="0 0 3.4 3.4" x="1480" y="1096" width="64" height="64" shape-rendering="auto"><circle fill="#000000" cx="1.7" cy="1.7" r="1.7"/></svg><svg viewBox="0 0 3.4 3.4" x="1544" y="1096" width="64" height="64" shape-rendering="auto"><circle fill="#000000" cx="1.7" cy="1.7" r="1.7"/></svg><svg viewBox="0 0 3.4 3.4" x="1672" y="1096" width="64" height="64" shape-rendering="auto"><circle fill="#000000" cx="1.7" cy="1.7" r="1.7"/></svg><svg viewBox="0 0 3.4 3.4" x="200" y="1160" width="64" height="64" shape-rendering="auto"><circle fill="#000000" cx="1.7" cy="1.7" r="1.7"/></svg><svg viewBox="0 0 3.4 3.4" x="328" y="1160" width="64" height="64" shape-rendering="auto"><circle fill="#000000" cx="1.7" cy="1.7" r="1.7"/></svg><svg viewBox="0 0 3.4 3.4" x="392" y="1160" width="64" height="64" shape-rendering="auto"><circle fill="#000000" cx="1.7" cy="1.7" r="1.7"/></svg><svg viewBox="0 0 3.4 3.4" x="520" y="1160" width="64" height="64" shape-rendering="auto"><circle fill="#000000" cx="1.7" cy="1.7" r="1.7"/></svg><svg viewBox="0 0 3.4 3.4" x="712" y="1160" width="64" height="64" shape-rendering="auto"><circle fill="#000000" cx="1.7" cy="1.7" r="1.7"/></svg><svg viewBox="0 0 3.4 3.4" x="776" y="1160" width="64" height="64" shape-rendering="auto"><circle fill="#000000" cx="1.7" cy="1.7" r="1.7"/></svg><svg viewBox="0 0 3.4 3.4" x="840" y="1160" width="64" height="64" shape-rendering="auto"><circle fill="#000000" cx="1.7" cy="1.7" r="1.7"/></svg><svg viewBox="0 0 3.4 3.4" x="968" y="1160" width="64" height="64" shape-rendering="auto"><circle fill="#000000" cx="1.7" cy="1.7" r="1.7"/></svg><svg viewBox="0 0 3.4 3.4" x="1096" y="1160" width="64" height="64" shape-rendering="auto"><circle fill="#000000" cx="1.7" cy="1.7" r="1.7"/></svg><svg viewBox="0 0 3.4 3.4" x="1288" y="1160" width="64" height="64" shape-rendering="auto"><circle fill="#000000" cx="1.7" cy="1.7" r="1.7"/></svg><svg viewBox="0 0 3.4 3.4" x="1672" y="1160" width="64" height="64" shape-rendering="auto"><circle fill="#000000" cx="1.7" cy="1.7" r="1.7"/></svg><svg viewBox="0 0 3.4 3.4" x="1736" y="1160" width="64" height="64" shape-rendering="auto"><circle fill="#000000" cx="1.7" cy="1.7" r="1.7"/></svg><svg viewBox="0 0 3.4 3.4" x="328" y="1224" width="64" height="64" shape-rendering="auto"><circle fill="#000000" cx="1.7" cy="1.7" r="1.7"/></svg><svg viewBox="0 0 3.4 3.4" x="456" y="1224" width="64" height="64" shape-rendering="auto"><circle fill="#000000" cx="1.7" cy="1.7" r="1.7"/></svg><svg viewBox="0 0 3.4 3.4" x="520" y="1224" width="64" height="64" shape-rendering="auto"><circle fill="#000000" cx="1.7" cy="1.7" r="1.7"/></svg><svg viewBox="0 0 3.4 3.4" x="584" y="1224" width="64" height="64" shape-rendering="auto"><circle fill="#000000" cx="1.7" cy="1.7" r="1.7"/></svg><svg viewBox="0 0 3.4 3.4" x="648" y="1224" width="64" height="64" shape-rendering="auto"><circle fill="#000000" cx="1.7" cy="1.7" r="1.7"/></svg><svg viewBox="0 0 3.4 3.4" x="776" y="1224" width="64" height="64" shape-rendering="auto"><circle fill="#000000" cx="1.7" cy="1.7" r="1.7"/></svg><svg viewBox="0 0 3.4 3.4" x="840" y="1224" width="64" height="64" shape-rendering="auto"><circle fill="#000000" cx="1.7" cy="1.7" r="1.7"/></svg><svg viewBox="0 0 3.4 3.4" x="904" y="1224" width="64" height="64" shape-rendering="auto"><circle fill="#000000" cx="1.7" cy="1.7" r="1.7"/></svg><svg viewBox="0 0 3.4 3.4" x="1096" y="1224" width="64" height="64" shape-rendering="auto"><circle fill="#000000" cx="1.7" cy="1.7" r="1.7"/></svg><svg viewBox="0 0 3.4 3.4" x="1224" y="1224" width="64" height="64" shape-rendering="auto"><circle fill="#000000" cx="1.7" cy="1.7" r="1.7"/></svg><svg viewBox="0 0 3.4 3.4" x="1288" y="1224" width="64" height="64" shape-rendering="auto"><circle fill="#000000" cx="1.7" cy="1.7" r="1.7"/></svg><svg viewBox="0 0 3.4 3.4" x="1352" y="1224" width="64" height="64" shape-rendering="auto"><circle fill="#000000" cx="1.7" cy="1.7" r="1.7"/></svg><svg viewBox="0 0 3.4 3.4" x="1416" y="1224" width="64" height="64" shape-rendering="auto"><circle fill="#000000" cx="1.7" cy="1.7" r="1.7"/></svg><svg viewBox="0 0 3.4 3.4" x="1480" y="1224" width="64" height="64" shape-rendering="auto"><circle fill="#000000" cx="1.7" cy="1.7" r="1.7"/></svg><svg viewBox="0 0 3.4 3.4" x="1672" y="1224" width="64" height="64" shape-rendering="auto"><circle fill="#000000" cx="1.7" cy="1.7" r="1.7"/></svg><svg viewBox="0 0 3.4 3.4" x="712" y="1288" width="64" height="64" shape-rendering="auto"><circle fill="#000000" cx="1.7" cy="1.7" r="1.7"/></svg><svg viewBox="0 0 3.4 3.4" x="968" y="1288" width="64" height="64" shape-rendering="auto"><circle fill="#000000" cx="1.7" cy="1.7" r="1.7"/></svg><svg viewBox="0 0 3.4 3.4" x="1032" y="1288" width="64" height="64" shape-rendering="auto"><circle fill="#000000" cx="1.7" cy="1.7" r="1.7"/></svg><svg viewBox="0 0 3.4 3.4" x="1096" y="1288" width="64" height="64" shape-rendering="auto"><circle fill="#000000" cx="1.7" cy="1.7" r="1.7"/></svg><svg viewBox="0 0 3.4 3.4" x="1160" y="1288" width="64" height="64" shape-rendering="auto"><circle fill="#000000" cx="1.7" cy="1.7" r="1.7"/></svg><svg viewBox="0 0 3.4 3.4" x="1224" y="1288" width="64" height="64" shape-rendering="auto"><circle fill="#000000" cx="1.7" cy="1.7" r="1.7"/></svg><svg viewBox="0 0 3.4 3.4" x="1480" y="1288" width="64" height="64" shape-rendering="auto"><circle fill="#000000" cx="1.7" cy="1.7" r="1.7"/></svg><svg viewBox="0 0 3.4 3.4" x="1544" y="1288" width="64" height="64" shape-rendering="auto"><circle fill="#000000" cx="1.7" cy="1.7" r="1.7"/></svg><svg viewBox="0 0 3.4 3.4" x="1608" y="1288" width="64" height="64" shape-rendering="auto"><circle fill="#000000" cx="1.7" cy="1.7" r="1.7"/></svg><svg viewBox="0 0 3.4 3.4" x="776" y="1352" width="64" height="64" shape-rendering="auto"><circle fill="#000000" cx="1.7" cy="1.7" r="1.7"/></svg><svg viewBox="0 0 3.4 3.4" x="904" y="1352" width="64" height="64" shape-rendering="auto"><circle fill="#000000" cx="1.7" cy="1.7" r="1.7"/></svg><svg viewBox="0 0 3.4 3.4" x="968" y="1352" width="64" height="64" shape-rendering="auto"><circle fill="#000000" cx="1.7" cy="1.7" r="1.7"/></svg><svg viewBox="0 0 3.4 3.4" x="1032" y="1352" width="64" height="64" shape-rendering="auto"><circle fill="#000000" cx="1.7" cy="1.7" r="1.7"/></svg><svg viewBox="0 0 3.4 3.4" x="1224" y="1352" width="64" height="64" shape-rendering="auto"><circle fill="#000000" cx="1.7" cy="1.7" r="1.7"/></svg><svg viewBox="0 0 3.4 3.4" x="1352" y="1352" width="64" height="64" shape-rendering="auto"><circle fill="#000000" cx="1.7" cy="1.7" r="1.7"/></svg><svg viewBox="0 0 3.4 3.4" x="1480" y="1352" width="64" height="64" shape-rendering="auto"><circle fill="#000000" cx="1.7" cy="1.7" r="1.7"/></svg><svg viewBox="0 0 3.4 3.4" x="1608" y="1352" width="64" height="64" shape-rendering="auto"><circle fill="#000000" cx="1.7" cy="1.7" r="1.7"/></svg><svg viewBox="0 0 3.4 3.4" x="1672" y="1352" width="64" height="64" shape-rendering="auto"><circle fill="#000000" cx="1.7" cy="1.7" r="1.7"/></svg><svg viewBox="0 0 3.4 3.4" x="1736" y="1352" width="64" height="64" shape-rendering="auto"><circle fill="#000000" cx="1.7" cy="1.7" r="1.7"/></svg><svg viewBox="0 0 3.4 3.4" x="968" y="1416" width="64" height="64" shape-rendering="auto"><circle fill="#000000" cx="1.7" cy="1.7" r="1.7"/></svg><svg viewBox="0 0 3.4 3.4" x="1160" y="1416" width="64" height="64" shape-rendering="auto"><circle fill="#000000" cx="1.7" cy="1.7" r="1.7"/></svg><svg viewBox="0 0 3.4 3.4" x="1224" y="1416" width="64" height="64" shape-rendering="auto"><circle fill="#000000" cx="1.7" cy="1.7" r="1.7"/></svg><svg viewBox="0 0 3.4 3.4" x="1480" y="1416" width="64" height="64" shape-rendering="auto"><circle fill="#000000" cx="1.7" cy="1.7" r="1.7"/></svg><svg viewBox="0 0 3.4 3.4" x="1672" y="1416" width="64" height="64" shape-rendering="auto"><circle fill="#000000" cx="1.7" cy="1.7" r="1.7"/></svg><svg viewBox="0 0 3.4 3.4" x="1736" y="1416" width="64" height="64" shape-rendering="auto"><circle fill="#000000" cx="1.7" cy="1.7" r="1.7"/></svg><svg viewBox="0 0 3.4 3.4" x="776" y="1480" width="64" height="64" shape-rendering="auto"><circle fill="#000000" cx="1.7" cy="1.7" r="1.7"/></svg><svg viewBox="0 0 3.4 3.4" x="904" y="1480" width="64" height="64" shape-rendering="auto"><circle fill="#000000" cx="1.7" cy="1.7" r="1.7"/></svg><svg viewBox="0 0 3.4 3.4" x="1032" y="1480" width="64" height="64" shape-rendering="auto"><circle fill="#000000" cx="1.7" cy="1.7" r="1.7"/></svg><svg viewBox="0 0 3.4 3.4" x="1160" y="1480" width="64" height="64" shape-rendering="auto"><circle fill="#000000" cx="1.7" cy="1.7" r="1.7"/></svg><svg viewBox="0 0 3.4 3.4" x="1224" y="1480" width="64" height="64" shape-rendering="auto"><circle fill="#000000" cx="1.7" cy="1.7" r="1.7"/></svg><svg viewBox="0 0 3.4 3.4" x="1288" y="1480" width="64" height="64" shape-rendering="auto"><circle fill="#000000" cx="1.7" cy="1.7" r="1.7"/></svg><svg viewBox="0 0 3.4 3.4" x="1352" y="1480" width="64" height="64" shape-rendering="auto"><circle fill="#000000" cx="1.7" cy="1.7" r="1.7"/></svg><svg viewBox="0 0 3.4 3.4" x="1416" y="1480" width="64" height="64" shape-rendering="auto"><circle fill="#000000" cx="1.7" cy="1.7" r="1.7"/></svg><svg viewBox="0 0 3.4 3.4" x="1480" y="1480" width="64" height="64" shape-rendering="auto"><circle fill="#000000" cx="1.7" cy="1.7" r="1.7"/></svg><svg viewBox="0 0 3.4 3.4" x="1608" y="1480" width="64" height="64" shape-rendering="auto"><circle fill="#000000" cx="1.7" cy="1.7" r="1.7"/></svg><svg viewBox="0 0 3.4 3.4" x="1736" y="1480" width="64" height="64" shape-rendering="auto"><circle fill="#000000" cx="1.7" cy="1.7" r="1.7"/></svg><svg viewBox="0 0 3.4 3.4" x="712" y="1544" width="64" height="64" shape-rendering="auto"><circle fill="#000000" cx="1.7" cy="1.7" r="1.7"/></svg><svg viewBox="0 0 3.4 3.4" x="776" y="1544" width="64" height="64" shape-rendering="auto"><circle fill="#000000" cx="1.7" cy="1.7" r="1.7"/></svg><svg viewBox="0 0 3.4 3.4" x="840" y="1544" width="64" height="64" shape-rendering="auto"><circle fill="#000000" cx="1.7" cy="1.7" r="1.7"/></svg><svg viewBox="0 0 3.4 3.4" x="968" y="1544" width="64" height="64" shape-rendering="auto"><circle fill="#000000" cx="1.7" cy="1.7" r="1.7"/></svg><svg viewBox="0 0 3.4 3.4" x="1160" y="1544" width="64" height="64" shape-rendering="auto"><circle fill="#000000" cx="1.7" cy="1.7" r="1.7"/></svg><svg viewBox="0 0 3.4 3.4" x="1224" y="1544" width="64" height="64" shape-rendering="auto"><circle fill="#000000" cx="1.7" cy="1.7" r="1.7"/></svg><svg viewBox="0 0 3.4 3.4" x="1352" y="1544" width="64" height="64" shape-rendering="auto"><circle fill="#000000" cx="1.7" cy="1.7" r="1.7"/></svg><svg viewBox="0 0 3.4 3.4" x="1480" y="1544" width="64" height="64" shape-rendering="auto"><circle fill="#000000" cx="1.7" cy="1.7" r="1.7"/></svg><svg viewBox="0 0 3.4 3.4" x="1672" y="1544" width="64" height="64" shape-rendering="auto"><circle fill="#000000" cx="1.7" cy="1.7" r="1.7"/></svg><svg viewBox="0 0 3.4 3.4" x="1736" y="1544" width="64" height="64" shape-rendering="auto"><circle fill="#000000" cx="1.7" cy="1.7" r="1.7"/></svg><svg viewBox="0 0 3.4 3.4" x="712" y="1608" width="64" height="64" shape-rendering="auto"><circle fill="#000000" cx="1.7" cy="1.7" r="1.7"/></svg><svg viewBox="0 0 3.4 3.4" x="840" y="1608" width="64" height="64" shape-rendering="auto"><circle fill="#000000" cx="1.7" cy="1.7" r="1.7"/></svg><svg viewBox="0 0 3.4 3.4" x="904" y="1608" width="64" height="64" shape-rendering="auto"><circle fill="#000000" cx="1.7" cy="1.7" r="1.7"/></svg><svg viewBox="0 0 3.4 3.4" x="1160" y="1608" width="64" height="64" shape-rendering="auto"><circle fill="#000000" cx="1.7" cy="1.7" r="1.7"/></svg><svg viewBox="0 0 3.4 3.4" x="1288" y="1608" width="64" height="64" shape-rendering="auto"><circle fill="#000000" cx="1.7" cy="1.7" r="1.7"/></svg><svg viewBox="0 0 3.4 3.4" x="1352" y="1608" width="64" height="64" shape-rendering="auto"><circle fill="#000000" cx="1.7" cy="1.7" r="1.7"/></svg><svg viewBox="0 0 3.4 3.4" x="1544" y="1608" width="64" height="64" shape-rendering="auto"><circle fill="#000000" cx="1.7" cy="1.7" r="1.7"/></svg><svg viewBox="0 0 3.4 3.4" x="1608" y="1608" width="64" height="64" shape-rendering="auto"><circle fill="#000000" cx="1.7" cy="1.7" r="1.7"/></svg><svg viewBox="0 0 3.4 3.4" x="1672" y="1608" width="64" height="64" shape-rendering="auto"><circle fill="#000000" cx="1.7" cy="1.7" r="1.7"/></svg><svg viewBox="0 0 3.4 3.4" x="712" y="1672" width="64" height="64" shape-rendering="auto"><circle fill="#000000" cx="1.7" cy="1.7" r="1.7"/></svg><svg viewBox="0 0 3.4 3.4" x="1032" y="1672" width="64" height="64" shape-rendering="auto"><circle fill="#000000" cx="1.7" cy="1.7" r="1.7"/></svg><svg viewBox="0 0 3.4 3.4" x="1096" y="1672" width="64" height="64" shape-rendering="auto"><circle fill="#000000" cx="1.7" cy="1.7" r="1.7"/></svg><svg viewBox="0 0 3.4 3.4" x="1160" y="1672" width="64" height="64" shape-rendering="auto"><circle fill="#000000" cx="1.7" cy="1.7" r="1.7"/></svg><svg viewBox="0 0 3.4 3.4" x="1288" y="1672" width="64" height="64" shape-rendering="auto"><circle fill="#000000" cx="1.7" cy="1.7" r="1.7"/></svg><svg viewBox="0 0 3.4 3.4" x="1480" y="1672" width="64" height="64" shape-rendering="auto"><circle fill="#000000" cx="1.7" cy="1.7" r="1.7"/></svg><svg viewBox="0 0 3.4 3.4" x="1608" y="1672" width="64" height="64" shape-rendering="auto"><circle fill="#000000" cx="1.7" cy="1.7" r="1.7"/></svg><svg viewBox="0 0 3.4 3.4" x="1672" y="1672" width="64" height="64" shape-rendering="auto"><circle fill="#000000" cx="1.7" cy="1.7" r="1.7"/></svg><svg viewBox="0 0 3.4 3.4" x="1736" y="1672" width="64" height="64" shape-rendering="auto"><circle fill="#000000" cx="1.7" cy="1.7" r="1.7"/></svg><svg viewBox="0 0 3.4 3.4" x="712" y="1736" width="64" height="64" shape-rendering="auto"><circle fill="#000000" cx="1.7" cy="1.7" r="1.7"/></svg><svg viewBox="0 0 3.4 3.4" x="968" y="1736" width="64" height="64" shape-rendering="auto"><circle fill="#000000" cx="1.7" cy="1.7" r="1.7"/></svg><svg viewBox="0 0 3.4 3.4" x="1032" y="1736" width="64" height="64" shape-rendering="auto"><circle fill="#000000" cx="1.7" cy="1.7" r="1.7"/></svg><svg viewBox="0 0 3.4 3.4" x="1096" y="1736" width="64" height="64" shape-rendering="auto"><circle fill="#000000" cx="1.7" cy="1.7" r="1.7"/></svg><svg viewBox="0 0 3.4 3.4" x="1160" y="1736" width="64" height="64" shape-rendering="auto"><circle fill="#000000" cx="1.7" cy="1.7" r="1.7"/></svg><svg viewBox="0 0 3.4 3.4" x="1608" y="1736" width="64" height="64" shape-rendering="auto"><circle fill="#000000" cx="1.7" cy="1.7" r="1.7"/></svg><svg viewBox="0 0 3.4 3.4" x="1672" y="1736" width="64" height="64" shape-rendering="auto"><circle fill="#000000" cx="1.7" cy="1.7" r="1.7"/></svg><svg viewBox="0 0 3.4 3.4" x="1736" y="1736" width="64" height="64" shape-rendering="auto"><circle fill="#000000" cx="1.7" cy="1.7" r="1.7"/></svg><svg version="1.0" id="Ebene_1" x="200" y="200" width="448" height="448" viewBox="0 0 699.988 699.986" enable-background="new 0 0 699.988 699.986" xml:space="preserve" shape-rendering="auto">
<g>
	<path fill="#000000" d="M471.467,699.987H228.521c-60.83,0-118.159-23.83-161.427-67.102C23.827,589.616,0,532.288,0,471.464   V-0.001h471.466c60.83,0,118.156,23.828,161.426,67.099c43.268,43.268,67.096,100.598,67.096,161.429v242.939   c0,60.824-23.828,118.152-67.094,161.424C589.623,676.155,532.299,699.987,471.467,699.987z M99.998,99.996v360.758   c0,76.771,62.458,139.232,139.232,139.232h221.525c76.771,0,139.229-62.461,139.229-139.232V239.234   c0-76.774-62.459-139.235-139.229-139.235L99.998,99.996L99.998,99.996z"/>
</g>
</svg>
<svg version="1.1" id="Ebene_1" x="200" y="200" width="448" height="448" viewBox="0 0 699.988 699.986" enable-background="new 0 0 699.988 699.986" xml:space="preserve" shape-rendering="auto">
<path fill="#000000" d="M499.991,291.611c0-50.384-41.229-91.614-91.612-91.614H199.997v208.379  c0,50.384,41.23,91.613,91.613,91.613h116.769c50.383,0,91.612-41.229,91.612-91.613V291.611L499.991,291.611z"/>
</svg>
<svg version="1.0" id="Ebene_1" x="1352" y="200" width="448" height="448" viewBox="0 0 699.988 699.986" enable-background="new 0 0 699.988 699.986" xml:space="preserve" shape-rendering="auto">
<g>
	<path fill="#000000" d="M471.467,699.987H228.521c-60.83,0-118.159-23.83-161.427-67.102C23.827,589.616,0,532.288,0,471.464   V-0.001h471.466c60.83,0,118.156,23.828,161.426,67.099c43.268,43.268,67.096,100.598,67.096,161.429v242.939   c0,60.824-23.828,118.152-67.094,161.424C589.623,676.155,532.299,699.987,471.467,699.987z M99.998,99.996v360.758   c0,76.771,62.458,139.232,139.232,139.232h221.525c76.771,0,139.229-62.461,139.229-139.232V239.234   c0-76.774-62.459-139.235-139.229-139.235L99.998,99.996L99.998,99.996z"/>
</g>
</svg>
<svg version="1.1" id="Ebene_1" x="1352" y="200" width="448" height="448" viewBox="0 0 699.988 699.986" enable-background="new 0 0 699.988 699.986" xml:space="preserve" shape-rendering="auto">
<path fill="#000000" d="M499.991,291.611c0-50.384-41.229-91.614-91.612-91.614H199.997v208.379  c0,50.384,41.23,91.613,91.613,91.613h116.769c50.383,0,91.612-41.229,91.612-91.613V291.611L499.991,291.611z"/>
</svg>
<svg version="1.0" id="Ebene_1" x="200" y="1352" width="448" height="448" viewBox="0 0 699.988 699.986" enable-background="new 0 0 699.988 699.986" xml:space="preserve" shape-rendering="auto">
<g>
	<path fill="#000000" d="M471.467,699.987H228.521c-60.83,0-118.159-23.83-161.427-67.102C23.827,589.616,0,532.288,0,471.464   V-0.001h471.466c60.83,0,118.156,23.828,161.426,67.099c43.268,43.268,67.096,100.598,67.096,161.429v242.939   c0,60.824-23.828,118.152-67.094,161.424C589.623,676.155,532.299,699.987,471.467,699.987z M99.998,99.996v360.758   c0,76.771,62.458,139.232,139.232,139.232h221.525c76.771,0,139.229-62.461,139.229-139.232V239.234   c0-76.774-62.459-139.235-139.229-139.235L99.998,99.996L99.998,99.996z"/>
</g>
</svg>
<svg version="1.1" id="Ebene_1" x="200" y="1352" width="448" height="448" viewBox="0 0 699.988 699.986" enable-background="new 0 0 699.988 699.986" xml:space="preserve" shape-rendering="auto">
<path fill="#000000" d="M499.991,291.611c0-50.384-41.229-91.614-91.612-91.614H199.997v208.379  c0,50.384,41.23,91.613,91.613,91.613h116.769c50.383,0,91.612-41.229,91.612-91.613V291.611L499.991,291.611z"/>
</svg>
</svg>

</svg>
